<svg version="1.1" viewBox="0.0 0.0 512.0 512.0" fill="none" stroke="none" stroke-linecap="square" stroke-miterlimit="10" xmlns:xlink="http://www.w3.org/1999/xlink" xmlns="http://www.w3.org/2000/svg"><clipPath id="p.0"><path d="m0 0l512.0 0l0 512.0l-512.0 0l0 -512.0z" clip-rule="nonzero"/></clipPath><g clip-path="url(#p.0)"><path fill="#000000" fill-opacity="0.0" d="m0 0l512.0 0l0 512.0l-512.0 0z" fill-rule="evenodd"/><path fill="#ff0000" d="m66.886536 46.940235l87.1712 87.1712l87.1712 -87.1712l22.948944 22.948925l-87.17122 87.1712l87.17122 87.1712l-22.948944 22.948944l-87.1712 -87.17122l-87.1712 87.17122l-22.948925 -22.948944l87.1712 -87.1712l-87.1712 -87.1712z" fill-rule="evenodd"/><path fill="#007fff" d="m240.10498 355.00262l0 0c0 -63.456207 51.441437 -114.897644 114.897644 -114.897644l0 0c30.472748 0 59.69742 12.105255 81.2449 33.65274c21.547485 21.547485 33.65274 50.772156 33.65274 81.2449l0 0c0 63.456207 -51.441437 114.897644 -114.897644 114.897644l0 0c-63.456207 0 -114.897644 -51.441437 -114.897644 -114.897644zm31.348663 0l0 0c0 46.142822 37.40616 83.54898 83.54898 83.54898c46.142822 0 83.54898 -37.40616 83.54898 -83.54898l0 0c0 -46.142822 -37.40616 -83.54898 -83.54898 -83.54898l0 0c-46.142822 0 -83.54898 37.40616 -83.54898 83.54898z" fill-rule="evenodd"/></g></svg>