<svg version="1.1" viewBox="0.0 0.0 64.0 64.0" fill="none" stroke="none" stroke-linecap="square" stroke-miterlimit="10" xmlns:xlink="http://www.w3.org/1999/xlink" xmlns="http://www.w3.org/2000/svg"><clipPath id="p.0"><path d="m0 0l64.0 0l0 64.0l-64.0 0l0 -64.0z" clip-rule="nonzero"/></clipPath><g clip-path="url(#p.0)"><path fill="#000000" fill-opacity="0.0" d="m0 0l64.0 0l0 64.0l-64.0 0z" fill-rule="evenodd"/><path fill="#000000" fill-opacity="0.0" d="m6.8841004 7.2467194l24.755905 24.755905" fill-rule="evenodd"/><path stroke="#ff0000" stroke-width="4.0" stroke-linejoin="round" stroke-linecap="butt" d="m6.8841004 7.2467194l24.755905 24.755905" fill-rule="evenodd"/><path fill="#000000" fill-opacity="0.0" d="m31.636404 7.2467194l-24.755905 24.755905" fill-rule="evenodd"/><path stroke="#ff0000" stroke-width="4.0" stroke-linejoin="round" stroke-linecap="butt" d="m31.636404 7.2467194l-24.755905 24.755905" fill-rule="evenodd"/><path fill="#000000" fill-opacity="0.0" d="m32.0 44.377953l0 0c0 -6.836155 5.5417976 -12.377953 12.377953 -12.377953l0 0c3.282837 0 6.431217 1.3041039 8.752533 3.6254196c2.3213196 2.3213158 3.6254196 5.469696 3.6254196 8.752533l0 0c0 6.836155 -5.5417976 12.377953 -12.377953 12.377953l0 0c-6.836155 0 -12.377953 -5.5417976 -12.377953 -12.377953z" fill-rule="evenodd"/><path stroke="#007fff" stroke-width="4.0" stroke-linejoin="round" stroke-linecap="butt" d="m32.0 44.377953l0 0c0 -6.836155 5.5417976 -12.377953 12.377953 -12.377953l0 0c3.282837 0 6.431217 1.3041039 8.752533 3.6254196c2.3213196 2.3213158 3.6254196 5.469696 3.6254196 8.752533l0 0c0 6.836155 -5.5417976 12.377953 -12.377953 12.377953l0 0c-6.836155 0 -12.377953 -5.5417976 -12.377953 -12.377953z" fill-rule="evenodd"/></g></svg>